<?xml version="1.0" encoding="utf-8"?>
<!-- Generator: Adobe Illustrator 25.1.0, SVG Export Plug-In . SVG Version: 6.00 Build 0)  -->
<svg version="1.1" id="Calque_1" xmlns="http://www.w3.org/2000/svg" xmlns:xlink="http://www.w3.org/1999/xlink" x="0px" y="0px"
	 viewBox="0 0 144 144" style="enable-background:new 0 0 258 144;" xml:space="preserve">
<style type="text/css">
	.st0{fill:#FFFFFF;}
</style>
<g id="Calque_1_1_">
</g>
<g id="Layer_1_1_">
	<polygon class="st0" points="-101,92.5 -120.5,92.5 -120.5,90 -101,89 	"/>
	<path class="st0" d="M79.5,20.4v-5.1h35.9V5.2H17.8v16v60.9v0.4c2.5,20.1,45.3,46.5,53.9,51.6l7.8,4.7V129l-2.9-2.1
		c-25-18-42-33.6-43.4-44.1V20.4H79.5z"/>
	<path class="st0" d="M58.8,30.8v7.6h20.5v2.7h30.9v40.2c-1,6.8-11.7,17.2-27.9,28.9l-2.7,2v6.4l5.9-3.5
		c5.7-3.3,33.6-20.7,35.2-33.8v-0.2v-40V30.8H58.8z"/>
</g>
</svg>
