<svg version="1.1" id="logo-desktop" xmlns="http://www.w3.org/2000/svg" class="logo">
    <style type="text/css">
        .logo-0 {
            fill: #231f20;
        }

        .logo-1 {
            fill: #ffffff;
        }

        .logo-2 {
            fill: #018849;
        }
    </style>
    <title id="catTitle">Université de Sherbrooke</title>
    <desc id="catDesc">Logo de l'Université de Sherbrooke</desc>
    <g>
        <g>
            <rect x="-0.1" class="logo-2" width="121.1" height="62"></rect>
            <path class="logo-1" d="M20.3,46.7c-2.5-2.8-3.7-7.1-3.7-12.9V16.6c0-1.3-0.9-2.3-2.2-2.6l-1.6-0.3v-2.6h13v2.6L24.4,14
			c-1.1,0.2-2,1.2-2,2.4v18c0,4.8,0.9,8.3,2.6,10.4c1.7,2.1,4.2,3.2,7.4,3.2s5.6-1.1,7.2-3.4c1.6-2.3,2.4-5.5,2.4-9.9V16.6
			c0-1.2-0.9-2.3-2.1-2.5l-1.3-0.3v-2.6H50v2.6L48.4,14c-1.3,0.2-2.2,1.3-2.2,2.6v17.8c0,5.5-1.3,9.6-3.9,12.3
			c-2.6,2.7-6.1,4.1-10.4,4.1C26.6,50.9,22.8,49.5,20.3,46.7z"></path>
            <path class="logo-1" d="M88.9,50.7c-1.4-0.3-3-0.8-4.8-1.3c-1.1-0.3-2.4-0.6-2.4-0.6l0.4-9.6h3.4c0,0,0.1,5.8,0.9,6.9
			c0.4,0.5,1.6,1.1,2.9,1.5c1.4,0.4,2.9,0.7,4.5,0.7c2.7,0,4.7-0.6,6.1-1.8s2.1-2.9,2.1-5c0-1.4-0.4-2.6-1.1-3.5
			c-0.8-1-1.8-1.8-3-2.5c-1.3-0.7-3-1.5-5.2-2.5c-2-0.9-3.7-1.8-5.2-2.7s-2.7-2.1-3.8-3.7c-1.1-1.5-1.6-3.4-1.6-5.5
			c0-1.9,0.5-3.7,1.6-5.2c1-1.5,2.5-2.7,4.5-3.6s4.2-1.3,6.9-1.3c1.6,0,3.1,0.1,4.3,0.4c1.3,0.2,2.7,0.6,4.3,1
			c0.7,0.2,1.8,0.5,1.8,0.5l-0.3,8.9H102c0,0,0-5.4-1.1-6.5c-0.4-0.4-1.1-0.7-2.2-1s-2.3-0.5-3.6-0.5c-2.4,0-4.3,0.5-5.5,1.5
			c-1.3,1-1.9,2.5-1.9,4.4c0,1.4,0.4,2.6,1.1,3.5c0.8,1,1.7,1.8,2.8,2.4c1.1,0.7,2.9,1.6,5.4,2.8c2.3,1.1,4.2,2.1,5.6,3
			c1.4,0.9,2.7,2,3.7,3.5c1,1.4,1.6,3.1,1.6,5.1c0,1.9-0.5,3.7-1.6,5.4c-1,1.7-2.6,3.2-4.8,4.3c-2.1,1.1-4.7,1.7-7.8,1.7
			C92,51.2,90.4,51,88.9,50.7z"></path>
        </g>
        <g>
            <path class="logo-1" d="M76.2,24.4c-1.1-1.8-2.6-3.3-4.6-4.3s-5.2-1.6-7.8-1.6h-8h-2.3v1.9c0,0,2.3,0,2.3,1.3c0,0,0,5.8,0,9.3
			c0,3.4,0,9.3,0,9.3c0,1.1-2.3,1.3-2.3,1.3v1.9H64c2.6,0,5.8-0.5,7.8-1.6s3.5-2.5,4.6-4.3s1.6-3.9,1.6-6.3v-0.5
			C77.8,28.4,77.3,26.3,76.2,24.4z M73.5,31.2c0,2-0.4,3.7-1.2,5.3c-0.8,1.6-2,2.8-3.5,3.7s-3.9,1.3-5.9,1.3h-3.3v-21h3.2
			c2,0,4.4,0.4,5.9,1.3s2.7,2.1,3.5,3.7s1.3,3.3,1.3,5.3C73.5,30.8,73.5,31.2,73.5,31.2z"></path>
        </g>
    </g>
</svg>